<svg width="512" height="321" viewBox="0 0 512 321" fill="none" xmlns="http://www.w3.org/2000/svg">
<path d="M145.957 36.2303L32.5573 115.772C8.69245 132.512 2.91629 165.428 19.6558 189.293C36.3954 213.158 69.3118 218.934 93.1766 202.194L206.576 122.652C230.441 105.913 236.217 72.9965 219.477 49.1317C202.738 25.2669 169.821 19.4907 145.957 36.2303Z" fill="#EA4335" stroke="#0F0F0F" stroke-width="8.5"/>
<path d="M206.818 197.638L93.0544 116.741C69.2979 99.8478 36.345 105.412 19.452 129.168C2.55897 152.925 8.12285 185.877 31.8793 202.77L145.643 283.667C169.4 300.56 202.353 294.997 219.246 271.24C236.139 247.484 230.575 214.531 206.818 197.638Z" fill="#4285F4" stroke="#0F0F0F" stroke-width="8.5"/>
<path d="M365.229 283.951L478.628 204.409C502.493 187.67 508.27 154.753 491.53 130.889C474.79 107.024 441.874 101.248 418.009 117.987L304.61 197.529C280.745 214.268 274.969 247.185 291.708 271.05C308.448 294.914 341.364 300.691 365.229 283.951Z" fill="#F9AB00" stroke="#0F0F0F" stroke-width="8.5"/>
<path d="M304.367 122.545L418.131 203.441C441.888 220.334 474.841 214.77 491.734 191.013C508.627 167.257 503.062 134.304 479.306 117.411L365.541 36.5149C341.785 19.6221 308.832 25.1862 291.939 48.9427C275.046 72.6992 280.61 105.652 304.367 122.545Z" fill="#34A853" stroke="#0F0F0F" stroke-width="8.5"/>
</svg>
