<svg width="29" height="29" viewBox="0 0 29 29" fill="none" xmlns="http://www.w3.org/2000/svg">
<path d="M26.9286 0.0625H2.06496C0.92567 0.0625 0 0.997071 0 2.14434V26.8557C0 28.0029 0.92567 28.9375 2.06496 28.9375H26.9286C28.0679 28.9375 29 28.0029 29 26.8557V2.14434C29 0.997071 28.0679 0.0625 26.9286 0.0625ZM8.76473 24.8125H4.46652V11.0324H8.7712V24.8125H8.76473ZM6.61562 9.15039C5.23683 9.15039 4.12344 8.03535 4.12344 6.66895C4.12344 5.30254 5.23683 4.1875 6.61562 4.1875C7.98795 4.1875 9.10781 5.30254 9.10781 6.66895C9.10781 8.0418 7.99442 9.15039 6.61562 9.15039ZM24.8766 24.8125H20.5783V18.1094C20.5783 16.5109 20.546 14.4549 18.3451 14.4549C16.1054 14.4549 15.7623 16.1951 15.7623 17.9934V24.8125H11.4641V11.0324H15.5875V12.9145H15.6458C16.2219 11.8316 17.6266 10.6908 19.7174 10.6908C24.0674 10.6908 24.8766 13.5461 24.8766 17.2586V24.8125Z" fill="#5F6368"/>
</svg>
